<svg version="1.1" id="Layer_1" xmlns="http://www.w3.org/2000/svg" xmlns:xlink="http://www.w3.org/1999/xlink" x="0px" y="0px"
	 width="100%" viewBox="0 0 1120 928" enable-background="new 0 0 1120 928" xml:space="preserve">
<path fill="#FEFFFF" opacity="1.000000" stroke="none" 
	d="
M752.000000,929.000000 
	C501.363831,929.000000 251.227676,929.000000 1.045762,929.000000 
	C1.045762,619.734924 1.045762,310.469788 1.045762,1.102348 
	C374.219543,1.102348 747.439087,1.102348 1120.829346,1.102348 
	C1120.829346,310.333252 1120.829346,619.666626 1120.829346,929.000000 
	C998.136292,929.000000 875.318176,929.000000 752.000000,929.000000 
M575.819885,502.816742 
	C575.819885,502.816742 575.811584,502.763306 576.499817,502.669037 
	C577.785950,500.672546 579.072083,498.676086 580.621094,496.229431 
	C580.684204,496.067474 580.747253,495.905548 581.501648,495.695648 
	C583.609253,492.757202 585.716858,489.818756 587.851257,486.827789 
	C587.851257,486.827789 587.839722,486.769958 588.513489,486.674072 
	C589.187378,486.243011 589.999023,485.935944 590.514771,485.362640 
	C601.259399,473.418091 611.891846,461.371735 622.720215,449.503937 
	C628.399780,443.279144 634.411072,437.356903 640.896545,431.037842 
	C643.710693,428.459900 646.524902,425.881989 649.998352,423.106659 
	C650.738098,422.738586 651.594910,422.505981 652.200562,421.982697 
	C668.284790,408.085297 685.847839,396.271210 703.939880,385.202148 
	C705.369995,384.327179 706.886963,383.594208 708.363525,382.795227 
	C708.687866,383.260864 709.012207,383.726532 709.336548,384.192169 
	C705.610229,387.155457 701.715759,389.932770 698.190674,393.118835 
	C689.599304,400.884064 681.179077,408.838776 672.059937,416.964355 
	C660.305054,429.362030 647.422485,440.892731 637.064636,454.364532 
	C622.242737,473.642395 608.215637,493.715515 595.811829,514.613953 
	C584.515076,533.647278 575.625610,554.134216 566.099670,574.182190 
	C561.949280,582.916992 558.755005,592.116394 555.338257,601.184570 
	C553.891479,605.024597 552.989685,609.069885 551.762390,613.588806 
	C551.707031,613.966370 551.651672,614.343872 551.026855,615.065918 
	C548.796082,620.803467 546.478149,626.510010 544.414795,632.307190 
	C544.043030,633.351807 544.718506,634.769287 544.837158,636.615417 
	C544.775391,637.014160 544.713684,637.412964 544.044861,638.086670 
	C542.079773,642.901001 540.407104,647.862549 538.075806,652.492493 
	C535.143066,658.316772 535.960876,661.150085 541.842957,663.939026 
	C547.802856,666.764709 553.852356,669.493164 559.496765,672.874878 
	C573.682556,681.373962 589.514221,685.832397 605.222778,689.358704 
	C620.579651,692.806152 636.515869,695.501953 652.542175,693.646790 
	C657.160767,693.112061 661.653259,691.487976 666.954895,690.299316 
	C667.959778,690.250732 668.964661,690.202148 670.608521,690.637878 
	C673.426880,690.614746 676.454651,691.259094 679.026917,690.451721 
	C689.594849,687.134766 700.239746,683.897461 710.459412,679.671021 
	C731.383240,671.017639 749.996765,658.420715 766.685791,643.279175 
	C796.984253,615.790039 820.407166,582.907654 839.940674,547.149048 
	C844.586853,538.643616 849.132812,530.071228 853.359985,521.352722 
	C856.998352,513.848450 860.273499,506.155243 863.392029,498.417725 
	C864.727173,495.104980 865.257568,491.467896 866.256897,487.306366 
	C866.806396,485.840393 867.355957,484.374451 868.623962,482.945465 
	C869.128113,481.280823 869.632324,479.616150 870.230774,477.206024 
	C870.164062,476.473969 870.097351,475.741882 870.320801,474.492554 
	C870.383423,474.104523 870.446045,473.716522 870.768494,473.780334 
	C870.939697,473.809845 871.110840,473.839386 871.768677,474.077820 
	C872.352844,473.636353 872.936951,473.194885 873.521057,472.753387 
	C873.167603,472.474701 872.814087,472.196014 872.778748,471.138367 
	C872.859558,469.764008 872.940369,468.389648 873.215881,467.149323 
	C873.215881,467.149323 873.440186,467.224091 874.126160,467.209503 
	C876.945801,465.890320 878.050354,463.910797 876.740906,460.304047 
	C876.843201,459.881348 876.945435,459.458618 877.705261,458.906830 
	C878.409912,456.562195 879.114563,454.217590 879.958435,451.186646 
	C880.292114,449.762878 880.625854,448.339142 881.036804,447.409729 
	C884.104492,446.009613 884.691467,444.688446 883.663757,441.282928 
	C883.767334,440.848236 883.870972,440.413513 884.574036,439.949890 
	C884.579773,439.304993 884.585449,438.660065 884.797913,437.362274 
	C885.194946,436.556732 885.591980,435.751190 886.207031,435.463654 
	C886.609497,435.396942 887.011963,435.330231 887.414429,435.263550 
	C887.090149,434.840027 886.765930,434.416473 886.635559,433.242889 
	C887.077271,431.465149 887.519043,429.687408 888.048950,428.420441 
	C890.902466,428.331207 891.633606,427.262115 889.793152,424.311188 
	C889.883301,423.890289 889.973450,423.469391 890.728333,422.928436 
	C891.633423,421.017609 895.357849,420.029358 892.854736,416.231506 
	C893.522339,414.442078 894.189880,412.652649 895.577026,410.869202 
	C896.563782,407.495331 897.550537,404.121460 898.567810,400.298065 
	C898.785767,399.918518 899.003723,399.538971 899.861694,399.135498 
	C900.078430,398.397766 900.295105,397.660065 900.724365,396.302643 
	C900.829773,395.878784 900.935181,395.454926 901.621948,394.963531 
	C901.639526,394.310974 901.657104,393.658447 901.738342,392.607361 
	C901.922180,392.136169 902.105957,391.665009 902.911133,391.137421 
	C903.176636,390.408356 903.442139,389.679260 903.889771,388.307739 
	C904.275940,387.302460 904.662170,386.297211 905.460449,385.688538 
	C905.731567,384.981262 906.002625,384.273956 906.584961,382.908691 
	C907.393372,380.966370 908.201721,379.024048 909.370911,377.576843 
	C909.885986,377.097626 910.610413,376.715546 910.884521,376.124573 
	C914.435120,368.468384 917.567505,360.596191 921.489685,353.138306 
	C934.163818,329.038330 948.320312,305.862335 965.449463,284.598663 
	C966.827332,282.888184 967.626404,280.711456 968.864746,278.398926 
	C968.864746,278.398926 969.065369,278.062744 969.771423,278.064972 
	C973.506165,274.174622 977.119629,270.158447 981.000671,266.419983 
	C989.228882,258.494232 997.639893,250.758102 1005.851624,242.815735 
	C1006.872131,241.828644 1007.463196,240.096344 1007.616638,238.642212 
	C1007.692383,237.924789 1006.343262,236.387985 1005.590332,236.355667 
	C998.070068,236.032837 990.539673,235.946457 982.211121,235.813660 
	C980.880676,235.736923 979.550171,235.660187 977.828491,234.949005 
	C970.318848,234.024475 962.827576,232.549026 955.295410,232.296814 
	C942.015015,231.852097 928.704224,231.917480 915.416565,232.222961 
	C906.002014,232.439407 896.599243,233.335358 887.203613,234.083160 
	C885.036072,234.255661 882.919067,235.062592 879.924377,235.675095 
	C877.610779,235.712219 875.297180,235.749344 872.348999,235.268738 
	C859.207703,234.782883 846.262146,236.440964 833.197083,237.693466 
	C814.517395,239.484207 795.976624,241.736954 777.553406,245.137314 
	C763.723511,247.689880 749.910339,250.346375 736.143005,253.212143 
	C733.901184,253.678787 731.935486,255.472031 729.241089,256.772736 
	C728.833862,256.798553 728.426636,256.824371 727.455627,256.341339 
	C721.361877,257.630310 715.144653,258.508118 709.199829,260.293091 
	C696.463501,264.117188 683.842407,268.333801 671.223816,272.538544 
	C663.306824,275.176605 655.307129,277.682220 647.653015,280.966309 
	C636.034668,285.951294 624.384644,291.009705 613.293213,297.039551 
	C598.088867,305.305267 583.071289,314.012329 568.572266,323.450012 
	C553.763611,333.089233 541.315857,345.672089 529.235718,358.519348 
	C528.147949,359.676178 527.542969,361.286957 526.109924,362.962677 
	C524.654419,364.315521 522.989319,365.503448 521.775879,367.046631 
	C509.596893,382.535553 498.883331,399.071899 491.458038,417.273132 
	C486.147949,430.289337 482.298706,444.037628 479.148346,457.769104 
	C473.438721,482.655762 472.729858,508.086945 473.301758,533.523987 
	C473.374146,536.744263 474.908569,539.931519 475.843323,543.843079 
	C475.861816,544.556946 475.880310,545.270874 475.355194,546.605591 
	C475.501343,551.226013 475.128723,555.934082 475.892242,560.450134 
	C478.059784,573.270569 480.247925,586.118347 483.263947,598.755920 
	C486.336151,611.628784 490.435211,624.255371 494.009766,637.010742 
	C494.840668,639.975586 496.637756,640.425781 498.798126,638.834534 
	C500.311890,637.719666 501.691071,636.094604 502.491730,634.396362 
	C505.781586,627.418457 508.881317,620.348694 511.943207,613.266174 
	C514.002380,608.503174 515.880737,603.661926 518.306885,598.410889 
	C518.806702,597.208374 519.306519,596.005859 520.473877,594.867981 
	C520.860718,593.908081 521.247498,592.948181 521.815125,591.393616 
	C522.149719,590.352905 522.484314,589.312195 523.132141,588.598389 
	C523.638672,587.728271 524.145203,586.858154 524.851318,585.306091 
	C525.047668,584.623718 525.244019,583.941345 526.113892,583.087646 
	C526.545532,581.962158 526.977234,580.836731 527.617004,579.250061 
	C527.673645,579.091187 527.730225,578.932251 528.449463,578.758972 
	C528.838074,577.836731 529.226685,576.914429 529.796936,575.287170 
	C531.188293,572.847778 532.579651,570.408325 534.638367,567.859619 
	C539.638184,559.960754 544.723145,552.113525 549.574036,544.124268 
	C550.697693,542.273743 551.022217,539.937988 551.763855,537.759888 
	C551.763855,537.759888 551.773254,537.678345 552.478271,537.672852 
	C554.243164,534.732910 556.008057,531.793030 557.796021,528.793945 
	C557.796021,528.793945 557.789307,528.730774 558.467957,528.662537 
	C560.464417,525.336975 562.460815,522.011475 564.889221,518.173401 
	C565.853210,516.682922 566.817261,515.192505 568.452332,513.652588 
	C568.978333,512.777466 569.504333,511.902313 570.525818,510.608337 
	C571.296936,509.340332 572.068054,508.072327 573.542786,506.700531 
	C574.294495,505.422424 575.046265,504.144348 575.819885,502.816742 
M424.737701,593.755920 
	C439.324615,606.090454 453.898895,618.439880 468.516632,630.737793 
	C470.090759,632.062073 471.917114,633.086609 474.693268,634.976379 
	C474.198486,624.321594 474.744446,615.221436 473.185913,606.497192 
	C468.827850,582.102173 462.365509,558.419067 449.407776,536.749329 
	C431.000824,505.966675 404.254333,486.381744 370.091858,477.597260 
	C354.472260,473.580841 337.965790,472.129486 321.776642,471.401093 
	C290.622894,469.999481 259.669373,472.765778 229.214020,479.885834 
	C216.144348,482.941345 202.840164,485.336121 190.134872,489.524658 
	C172.716995,495.266724 155.606247,502.043823 138.674576,509.120758 
	C127.532997,513.777588 116.907333,519.682739 106.143082,525.208923 
	C104.912018,525.841003 104.277267,527.634644 103.366028,528.889648 
	C104.582695,529.549927 105.758965,530.302429 107.022446,530.855896 
	C116.713219,535.100769 126.910873,538.452881 136.031860,543.684814 
	C163.794464,559.609741 186.059586,582.118042 207.161514,605.748047 
	C225.464233,626.243530 243.821899,646.633606 265.418610,663.793518 
	C288.662048,682.261902 313.817017,696.823120 343.201782,703.456177 
	C366.091400,708.622986 388.269775,706.198364 409.567322,697.559387 
	C427.809723,690.159729 442.895813,677.808350 456.106628,663.151489 
	C459.258545,659.654602 459.328827,656.937073 456.501221,653.661133 
	C449.441620,645.482056 442.901428,636.765991 435.181732,629.264771 
	C421.365662,615.839844 407.251587,602.655029 392.513611,590.259827 
	C365.479431,567.522949 334.605133,551.731384 300.650635,541.962524 
	C299.913513,541.750549 299.352173,540.927551 298.708832,540.389648 
	C298.972626,539.890137 299.236420,539.390625 299.500214,538.891113 
	C346.291199,544.737610 387.132507,564.573425 424.737701,593.755920 
z"/>
<path fill="#048E44" opacity="1.000000" stroke="none" 
	d="
M870.508667,473.328522 
	C870.446045,473.716522 870.383423,474.104523 869.820740,474.758057 
	C868.164429,476.781128 866.759155,478.425751 865.900391,480.318359 
	C863.683472,485.204346 861.729187,490.208893 859.630676,495.149353 
	C857.139832,501.013489 854.644592,506.876251 852.083801,512.710022 
	C849.259399,519.144592 846.793152,525.786194 843.401733,531.911743 
	C836.037231,545.213562 828.443176,558.405273 820.442993,571.332642 
	C814.546936,580.859985 807.868042,589.903564 801.519836,599.150269 
	C798.499390,603.549805 795.436584,607.920288 792.310913,612.490967 
	C792.228882,612.677917 792.048340,613.044189 791.694275,613.053345 
	C789.891541,615.040039 788.442932,617.017578 786.848267,619.241333 
	C786.143921,619.999817 785.585632,620.512085 784.680725,621.033569 
	C779.694275,625.441162 774.968750,629.753906 770.453674,634.276794 
	C768.425293,636.308533 766.817871,638.760559 764.879150,641.213928 
	C764.531982,641.651062 764.289307,641.853027 763.645264,641.995239 
	C759.523071,645.322083 755.766357,648.665649 752.004822,652.004639 
	C752.000000,652.000000 752.007690,652.010071 751.639038,651.993286 
	C746.870728,655.340332 742.471008,658.704285 738.048828,662.033386 
	C738.026306,661.998535 738.053711,662.074951 737.664795,662.038208 
	C731.671692,664.729187 725.901489,667.165283 720.496399,670.242859 
	C707.569641,677.603271 693.548401,681.748169 679.221802,685.184448 
	C674.025269,686.430908 668.936584,688.127014 663.359802,689.659424 
	C659.945068,689.765625 656.969116,689.830383 653.693359,689.609985 
	C644.659302,688.933899 635.927673,688.451111 627.189392,688.206665 
	C624.468811,688.130493 621.730164,688.699158 618.642822,688.964722 
	C617.575439,688.889099 616.864990,688.821472 616.033447,688.425354 
	C612.258545,685.633240 608.423950,684.166992 603.652710,685.918945 
	C602.612122,685.786804 601.921509,685.673767 601.078247,685.263489 
	C598.858398,684.009460 596.840942,682.920349 594.715210,682.118652 
	C584.463135,678.251953 574.188599,674.444641 563.906616,670.658142 
	C561.297546,669.697327 558.632080,668.889954 555.996216,668.006042 
	C556.000000,668.000000 555.988708,668.010254 555.957031,667.664246 
	C552.991638,665.583008 550.214844,663.453430 547.085938,662.208496 
	C542.807983,660.506409 541.043579,658.186340 542.487183,653.499573 
	C543.636841,649.767212 544.155090,645.840393 544.993591,641.647400 
	C545.154968,640.596741 545.276428,639.898499 545.695679,639.071411 
	C547.358765,636.831238 550.322632,635.194397 548.086060,631.645325 
	C548.225830,630.572021 548.331848,629.857788 548.744202,629.010498 
	C551.325500,623.299194 553.603638,617.722046 555.874390,612.141968 
	C557.222839,608.828369 558.674988,605.551208 559.878540,602.185486 
	C562.529297,594.772644 564.704102,587.169861 567.712280,579.909424 
	C571.745361,570.175476 576.031555,560.511719 580.840942,551.142090 
	C588.529419,536.163513 596.746033,521.456177 604.721191,506.624451 
	C607.512024,501.434296 610.249390,496.215424 613.005615,491.004822 
	C613.000000,491.000000 613.011414,491.010620 613.357178,490.989532 
	C615.025757,489.535736 616.581360,488.254395 617.629272,486.642883 
	C621.190735,481.165558 624.572937,475.571625 628.011841,470.011108 
	C628.000000,470.000000 628.026367,470.021698 628.368164,469.993591 
	C632.118835,465.294373 635.527771,460.623230 638.969116,455.969025 
	C639.001648,455.985931 638.941833,455.939728 639.292480,455.942932 
	C641.294006,453.860138 642.944885,451.774109 644.686279,449.507019 
	C644.776733,449.325928 644.966125,448.968048 645.316040,448.953979 
	C647.437988,446.621399 649.210022,444.302856 651.119873,441.788818 
	C651.472412,441.352264 651.722717,441.156769 652.352905,440.989410 
	C656.132996,436.983887 659.568848,432.995728 663.002319,429.003784 
	C663.000000,429.000000 663.008179,429.004242 663.335083,428.985931 
	C664.104248,428.309357 664.546448,427.651123 664.994324,426.996429 
	C665.000000,427.000000 664.992798,426.988647 665.320190,426.974304 
	C666.093689,426.304138 666.539673,425.648346 666.992798,424.996277 
	C667.000000,425.000000 666.992798,424.985931 667.321777,424.973541 
	C668.091553,424.298798 668.532288,423.636414 669.215332,422.773254 
	C670.651733,421.391632 671.845886,420.210846 673.389832,419.006683 
	C677.156433,415.652130 680.573181,412.320953 684.158325,408.769135 
	C684.789612,408.246063 685.252502,407.943665 686.069580,407.721313 
	C688.957275,405.210388 691.490906,402.619354 694.159363,399.831116 
	C694.495605,399.380890 694.739075,399.178375 695.386536,399.035583 
	C702.230347,394.419312 708.776611,389.879974 715.153992,385.114624 
	C717.006653,383.730225 718.376160,381.699158 720.151245,379.872437 
	C720.335205,379.780334 720.712769,379.616364 721.076172,379.706360 
	C726.222717,376.367065 731.074036,373.025604 735.719666,369.419312 
	C736.467468,368.838806 736.298340,367.077240 736.553101,365.861633 
	C735.480164,365.758484 734.207458,365.226288 733.365112,365.618439 
	C724.869080,369.573944 715.966125,372.926147 708.098328,377.903381 
	C692.108948,388.018341 676.577026,398.874573 661.106201,409.779449 
	C656.653625,412.917938 653.054443,417.267181 649.031982,421.030640 
	C649.000000,421.000000 649.062805,421.063446 648.704834,421.063507 
	C646.237915,423.049774 644.128967,425.035950 641.865845,427.262085 
	C641.151123,428.010193 640.590454,428.518341 639.674194,429.031494 
	C635.315674,432.446167 631.181213,435.716400 627.362854,439.321411 
	C625.306885,441.262512 623.792664,443.777466 622.016968,446.016754 
	C622.000000,446.000000 622.033875,446.033661 621.701477,446.044128 
	C620.931824,446.721466 620.494507,447.388336 620.028564,448.027618 
	C620.000000,448.000000 620.055664,448.057312 619.706360,448.054230 
	C614.586609,453.383698 609.816101,458.716248 604.904724,464.238647 
	C604.556458,464.668610 604.320740,464.876648 603.702393,465.058655 
	C601.913391,467.054474 600.478577,469.044098 599.021851,471.019226 
	C599.000000,471.004761 599.040710,471.041351 598.690918,471.048157 
	C596.580200,473.388458 594.819336,475.721954 593.029236,478.027710 
	C593.000000,478.000000 593.056519,478.057648 592.714722,478.068542 
	C592.037659,478.796234 591.702454,479.512970 591.335693,480.263733 
	C591.304138,480.297729 591.243408,480.367798 590.897339,480.294830 
	C590.029419,480.576050 589.367981,480.824066 589.005981,481.299896 
	C580.634094,492.304993 572.249878,503.301575 564.009216,514.404602 
	C563.038635,515.712280 562.890076,517.630005 562.232422,519.514038 
	C561.758484,520.196045 561.412598,520.629089 560.715637,521.071045 
	C559.809265,521.424133 559.025024,521.633423 558.731506,522.131775 
	C546.919067,542.190613 534.879883,562.123169 523.476196,582.412720 
	C516.309692,595.163269 508.464172,607.628784 504.033325,621.796997 
	C502.980011,625.165039 500.566071,628.107605 498.233398,632.201721 
	C496.848969,629.490906 495.697632,627.862854 495.149200,626.052185 
	C492.996826,618.946228 490.856628,611.827332 489.050690,604.628357 
	C487.158112,597.083862 485.760284,589.416382 483.937531,581.852905 
	C482.961121,577.801331 481.545319,573.855652 480.257812,569.480591 
	C480.136688,568.065613 480.085510,567.032288 480.323212,565.716187 
	C480.643158,562.967224 480.872955,560.484436 480.670929,558.037415 
	C479.804047,547.536926 478.453217,537.063538 477.965973,526.548401 
	C477.506256,516.627014 477.942505,506.665527 477.891449,496.722137 
	C477.883362,495.149109 477.383209,493.578613 477.100647,491.691467 
	C477.132050,490.957581 477.173401,490.539185 477.561707,489.990570 
	C478.191864,489.464874 478.658539,489.100494 478.731628,488.669403 
	C480.764771,476.679932 482.808838,464.691620 484.692810,452.678345 
	C484.926117,451.190613 484.272400,449.563812 484.050598,447.691284 
	C484.145721,446.973633 484.219971,446.566101 484.615326,446.043457 
	C486.592651,441.128998 487.879974,436.161499 489.976990,431.563263 
	C495.402710,419.665955 500.693268,407.662964 506.947144,396.198212 
	C515.234558,381.005676 525.838806,367.366028 538.216492,355.239136 
	C545.318665,348.280853 552.420593,341.174713 560.352417,335.245087 
	C572.772583,325.960175 585.407715,316.757751 598.854797,309.107483 
	C612.989075,301.066223 628.122437,294.754547 642.943481,287.957977 
	C650.711670,284.395691 658.641907,281.122070 666.689087,278.250977 
	C674.887512,275.325958 683.348328,273.143066 691.620056,270.410461 
	C692.994385,269.956451 693.989258,268.353607 695.462646,267.212708 
	C696.178406,267.107513 696.590881,267.071259 697.254211,267.315308 
	C698.978394,267.640411 700.545532,268.036377 701.909851,267.672363 
	C710.096008,265.488617 718.269775,263.241699 726.369690,260.761322 
	C728.760803,260.029083 730.899414,258.472076 733.455811,257.234680 
	C734.166931,257.161865 734.575989,257.147430 735.271179,257.404846 
	C739.211426,257.056732 742.875488,256.489838 746.517883,255.806992 
	C757.552490,253.738251 768.616028,251.802170 779.600464,249.491882 
	C803.283081,244.510880 827.266602,242.231033 851.377869,240.792023 
	C859.939697,240.281036 868.462646,239.072083 876.991516,238.079880 
	C879.992004,237.730804 882.957153,237.077332 886.390259,236.584885 
	C889.766357,236.544647 892.690674,236.482391 896.083862,236.614990 
	C917.617126,236.866760 938.681580,236.932205 959.745972,236.945389 
	C960.493164,236.945862 961.240540,236.427902 962.443604,236.127365 
	C966.222656,236.211517 969.545959,236.319901 973.040405,236.761719 
	C982.392212,238.370193 991.572754,239.645233 1000.870605,240.936539 
	C1000.579224,241.576279 1000.491150,242.155182 1000.154297,242.444153 
	C998.522522,243.843964 996.762146,245.096558 995.158630,246.526138 
	C978.898376,261.022827 964.888428,277.603271 952.245239,295.200439 
	C942.904480,308.201202 934.588074,322.010681 926.692444,335.956512 
	C918.976318,349.585358 912.114685,363.721039 905.369690,377.868713 
	C900.824951,387.401459 896.927856,397.261597 893.118408,407.121124 
	C889.150635,417.390503 885.761902,427.882385 881.882324,438.187469 
	C878.943542,445.993530 875.568970,453.634918 872.564636,461.417664 
	C872.186218,462.398010 872.882080,463.793030 873.048767,465.383545 
	C873.158264,466.255493 873.299255,466.739777 873.440186,467.224091 
	C873.440186,467.224091 873.215881,467.149323 872.755005,467.081177 
	C869.909912,468.612427 867.318726,470.153320 870.508667,473.328522 
z"/>
<path fill="#99CD45" opacity="1.000000" stroke="none" 
	d="
M424.468842,593.519226 
	C387.132507,564.573425 346.291199,544.737610 299.500214,538.891113 
	C299.236420,539.390625 298.972626,539.890137 298.708832,540.389648 
	C299.352173,540.927551 299.913513,541.750549 300.650635,541.962524 
	C334.605133,551.731384 365.479431,567.522949 392.513611,590.259827 
	C407.251587,602.655029 421.365662,615.839844 435.181732,629.264771 
	C442.901428,636.765991 449.441620,645.482056 456.501221,653.661133 
	C459.328827,656.937073 459.258545,659.654602 456.106628,663.151489 
	C442.895813,677.808350 427.809723,690.159729 409.567322,697.559387 
	C388.269775,706.198364 366.091400,708.622986 343.201782,703.456177 
	C313.817017,696.823120 288.662048,682.261902 265.418610,663.793518 
	C243.821899,646.633606 225.464233,626.243530 207.161514,605.748047 
	C186.059586,582.118042 163.794464,559.609741 136.031860,543.684814 
	C126.910873,538.452881 116.713219,535.100769 107.022446,530.855896 
	C105.758965,530.302429 104.582695,529.549927 103.366028,528.889648 
	C104.277267,527.634644 104.912018,525.841003 106.143082,525.208923 
	C116.907333,519.682739 127.532997,513.777588 138.674576,509.120758 
	C155.606247,502.043823 172.716995,495.266724 190.134872,489.524658 
	C202.840164,485.336121 216.144348,482.941345 229.214020,479.885834 
	C259.669373,472.765778 290.622894,469.999481 321.776642,471.401093 
	C337.965790,472.129486 354.472260,473.580841 370.091858,477.597260 
	C404.254333,486.381744 431.000824,505.966675 449.407776,536.749329 
	C462.365509,558.419067 468.827850,582.102173 473.185913,606.497192 
	C474.744446,615.221436 474.198486,624.321594 474.693268,634.976379 
	C471.917114,633.086609 470.090759,632.062073 468.516632,630.737793 
	C453.898895,618.439880 439.324615,606.090454 424.468842,593.519226 
z"/>
<path fill="#9FD2B3" opacity="1.000000" stroke="none" 
	d="
M785.027344,621.024292 
	C785.585632,620.512085 786.143921,619.999817 787.168701,619.140076 
	C789.106140,616.876465 790.577271,614.960327 792.048340,613.044189 
	C792.048340,613.044189 792.228882,612.677917 792.623779,612.400635 
	C796.809204,607.751892 800.925781,603.619690 804.337402,598.970276 
	C826.975525,568.118225 845.818604,535.122375 860.112427,499.567413 
	C861.729614,495.544922 864.121216,491.833740 866.153625,487.978180 
	C865.257568,491.467896 864.727173,495.104980 863.392029,498.417725 
	C860.273499,506.155243 856.998352,513.848450 853.359985,521.352722 
	C849.132812,530.071228 844.586853,538.643616 839.940674,547.149048 
	C820.407166,582.907654 796.984253,615.790039 766.685791,643.279175 
	C749.996765,658.420715 731.383240,671.017639 710.459412,679.671021 
	C700.239746,683.897461 689.594849,687.134766 679.026917,690.451721 
	C676.454651,691.259094 673.426880,690.614746 670.539917,690.107300 
	C682.887024,686.010742 695.679199,683.383301 707.606201,678.599121 
	C718.251953,674.329041 727.941956,667.676331 738.053711,662.074951 
	C738.053711,662.074951 738.026306,661.998535 738.397217,662.011169 
	C743.181274,658.685852 747.594482,655.347961 752.007690,652.010071 
	C752.007690,652.010071 752.000000,652.000000 752.350708,651.985291 
	C756.471252,648.651062 760.240967,645.331543 764.010681,642.011963 
	C764.289307,641.853027 764.531982,641.651062 765.224609,641.201294 
	C769.668030,637.316528 773.755981,633.764526 777.539490,629.913330 
	C780.246643,627.157837 782.545959,624.001648 785.027344,621.024292 
z"/>
<path fill="#4DAB75" opacity="1.000000" stroke="none" 
	d="
M873.080261,464.995941 
	C872.882080,463.793030 872.186218,462.398010 872.564636,461.417664 
	C875.568970,453.634918 878.943542,445.993530 881.882324,438.187469 
	C885.761902,427.882385 889.150635,417.390503 893.118408,407.121124 
	C896.927856,397.261597 900.824951,387.401459 905.369690,377.868713 
	C912.114685,363.721039 918.976318,349.585358 926.692444,335.956512 
	C934.588074,322.010681 942.904480,308.201202 952.245239,295.200439 
	C964.888428,277.603271 978.898376,261.022827 995.158630,246.526138 
	C996.762146,245.096558 998.522522,243.843964 1000.154297,242.444153 
	C1000.491150,242.155182 1000.579224,241.576279 1000.870605,240.936539 
	C991.572754,239.645233 982.392212,238.370193 973.468689,236.608551 
	C975.223755,235.942459 976.721741,235.762955 978.219727,235.583435 
	C979.550171,235.660187 980.880676,235.736923 982.876221,236.121277 
	C990.413147,237.295456 997.284973,238.162018 1004.156860,239.028564 
	C1004.219360,239.614670 1004.281860,240.200790 1004.344360,240.786896 
	C1003.165588,242.096405 1002.059875,243.481537 1000.796021,244.702957 
	C993.284546,251.962280 985.584412,259.034393 978.267517,266.483612 
	C974.831787,269.981506 972.110474,274.181152 969.065369,278.062744 
	C969.065369,278.062744 968.864746,278.398926 968.460327,278.664734 
	C967.103699,279.837402 966.032104,280.648590 965.216736,281.665314 
	C949.214966,301.619232 935.210938,322.916718 923.392395,345.576721 
	C918.061218,355.798279 913.771973,366.563263 909.010071,377.081726 
	C908.201721,379.024048 907.393372,380.966370 906.164062,383.345123 
	C905.511536,384.285004 905.279968,384.788483 905.048401,385.291962 
	C904.662170,386.297211 904.275940,387.302460 903.483582,388.665497 
	C902.814880,389.746765 902.552307,390.470306 902.289795,391.193817 
	C902.105957,391.665009 901.922180,392.136169 901.472534,392.977722 
	C901.151367,393.909088 901.095947,394.470093 901.040527,395.031067 
	C900.935181,395.454926 900.829773,395.878784 900.323242,396.667664 
	C899.688599,397.741608 899.455139,398.450500 899.221619,399.159393 
	C899.003723,399.538971 898.785767,399.918518 898.302490,400.862091 
	C896.977295,404.571808 895.917358,407.717529 894.857422,410.863220 
	C894.189880,412.652649 893.522339,414.442078 892.436157,416.654419 
	C891.366211,419.067749 890.714905,421.058105 890.063599,423.048492 
	C889.973450,423.469391 889.883301,423.890289 889.365234,424.717102 
	C888.611816,426.051880 888.286316,426.980774 887.960815,427.909637 
	C887.519043,429.687408 887.077271,431.465149 886.362000,433.711121 
	C885.896301,434.414062 885.863159,434.669525 885.989075,434.945679 
	C885.591980,435.751190 885.194946,436.556732 884.472168,437.856995 
	C884.089111,438.894104 884.031860,439.436462 883.974548,439.978821 
	C883.870972,440.413513 883.767334,440.848236 883.250122,441.709412 
	C882.210876,443.729034 881.585205,445.322205 880.959534,446.915375 
	C880.625854,448.339142 880.292114,449.762878 879.575806,451.596252 
	C878.478088,454.349243 877.762878,456.692566 877.047729,459.035919 
	C876.945435,459.458618 876.843201,459.881348 876.345581,460.668579 
	C874.993652,462.354034 874.036987,463.674988 873.080261,464.995941 
z"/>
<path fill="#ADD9BE" opacity="1.000000" stroke="none" 
	d="
M697.003418,267.035034 
	C696.590881,267.071259 696.178406,267.107513 695.070068,267.109314 
	C685.849609,269.754211 677.169189,272.023834 668.830139,275.191986 
	C646.376404,283.722565 624.104675,292.654633 602.992798,304.315765 
	C585.227905,314.128204 568.328369,325.139984 553.072327,338.487122 
	C544.106873,346.330811 535.826416,354.957489 527.105530,363.096985 
	C526.973206,362.962006 526.713806,362.686920 526.713806,362.686920 
	C527.542969,361.286957 528.147949,359.676178 529.235718,358.519348 
	C541.315857,345.672089 553.763611,333.089233 568.572266,323.450012 
	C583.071289,314.012329 598.088867,305.305267 613.293213,297.039551 
	C624.384644,291.009705 636.034668,285.951294 647.653015,280.966309 
	C655.307129,277.682220 663.306824,275.176605 671.223816,272.538544 
	C683.842407,268.333801 696.463501,264.117188 709.199829,260.293091 
	C715.144653,258.508118 721.361877,257.630310 727.509583,256.895691 
	C727.099670,257.617035 726.641357,257.801788 726.171143,257.948425 
	C716.449341,260.979858 706.726257,264.007050 697.003418,267.035034 
z"/>
<path fill="#9FD2B3" opacity="1.000000" stroke="none" 
	d="
M644.966187,448.968079 
	C644.966125,448.968048 644.776733,449.325928 644.374939,449.596802 
	C642.296021,451.891663 640.618958,453.915680 638.941833,455.939728 
	C638.941833,455.939728 639.001648,455.985931 638.651367,456.081818 
	C634.876099,460.792358 631.451233,465.407013 628.026367,470.021698 
	C628.026367,470.021698 628.000000,470.000000 627.687134,470.114227 
	C622.586670,477.155823 617.799011,484.083221 613.011414,491.010620 
	C613.011414,491.010620 613.000000,491.000000 612.679688,491.111450 
	C609.294861,495.936310 605.850708,500.448730 603.232300,505.398071 
	C592.390869,525.890564 581.385132,546.314697 571.284485,567.173035 
	C565.966125,578.155579 562.520020,590.033936 557.955383,601.398132 
	C556.332092,605.439453 553.901978,609.156677 551.840210,613.021851 
	C552.989685,609.069885 553.891479,605.024597 555.338257,601.184570 
	C558.755005,592.116394 561.949280,582.916992 566.099670,574.182190 
	C575.625610,554.134216 584.515076,533.647278 595.811829,514.613953 
	C608.215637,493.715515 622.242737,473.642395 637.064636,454.364532 
	C647.422485,440.892731 660.305054,429.362030 672.514099,416.970215 
	C672.968262,416.976074 673.239685,417.236389 673.165405,417.530090 
	C673.074097,418.225861 673.057068,418.627960 673.040039,419.030060 
	C671.845886,420.210846 670.651733,421.391632 668.892456,422.794312 
	C667.882446,423.672760 667.437622,424.329346 666.992798,424.985931 
	C666.992798,424.985931 667.000000,425.000000 666.668091,425.015076 
	C665.888367,425.682953 665.440613,426.335815 664.992798,426.988647 
	C664.992798,426.988647 665.000000,427.000000 664.669922,427.018555 
	C663.895874,427.692780 663.452026,428.348511 663.008179,429.004242 
	C663.008179,429.004242 663.000000,429.000000 662.679565,429.098541 
	C658.908936,433.133667 655.458801,437.070251 652.008667,441.006836 
	C651.722717,441.156769 651.472412,441.352264 650.801086,441.893311 
	C648.551697,444.451569 646.758911,446.709808 644.966187,448.968079 
z"/>
<path fill="#4DAB75" opacity="1.000000" stroke="none" 
	d="
M480.327759,569.862183 
	C481.545319,573.855652 482.961121,577.801331 483.937531,581.852905 
	C485.760284,589.416382 487.158112,597.083862 489.050690,604.628357 
	C490.856628,611.827332 492.996826,618.946228 495.149200,626.052185 
	C495.697632,627.862854 496.848969,629.490906 498.233398,632.201721 
	C500.566071,628.107605 502.980011,625.165039 504.033325,621.796997 
	C508.464172,607.628784 516.309692,595.163269 523.476196,582.412720 
	C534.879883,562.123169 546.919067,542.190613 558.731506,522.131775 
	C559.025024,521.633423 559.809265,521.424133 560.700806,521.425293 
	C559.954407,524.090576 558.871887,526.410706 557.789307,528.730774 
	C557.789307,528.730774 557.796021,528.793945 557.460815,528.907715 
	C555.341431,531.907043 553.557373,534.792725 551.773254,537.678345 
	C551.773254,537.678345 551.763855,537.759888 551.422607,537.894897 
	C548.944153,541.348389 546.633362,544.569580 544.706909,548.006165 
	C541.013000,554.595764 537.537231,561.307739 533.970947,567.968933 
	C532.579651,570.408325 531.188293,572.847778 529.439819,575.762085 
	C528.650757,577.082520 528.218750,577.927917 527.786743,578.773376 
	C527.730225,578.932251 527.673645,579.091187 527.260925,579.662964 
	C526.416687,581.136841 525.928528,582.197876 525.440369,583.258972 
	C525.244019,583.941345 525.047668,584.623718 524.409729,585.806152 
	C523.585083,586.961304 523.202026,587.616394 522.818970,588.271484 
	C522.484314,589.312195 522.149719,590.352905 521.449341,591.806335 
	C520.657837,593.080505 520.232056,593.941895 519.806274,594.803345 
	C519.306519,596.005859 518.806702,597.208374 517.731018,598.692749 
	C514.320374,604.527893 511.402405,610.040649 508.674225,615.645874 
	C505.933105,621.277588 503.488129,627.055664 500.653564,632.637695 
	C500.102173,633.723511 498.408539,634.620728 497.139008,634.778503 
	C496.540833,634.852905 495.422150,633.070740 495.018036,631.956238 
	C493.553680,627.917847 492.154327,623.844971 490.983917,619.713318 
	C488.815796,612.059509 486.488190,604.426331 484.851715,596.653076 
	C482.987396,587.797791 481.805969,578.798767 480.327759,569.862183 
z"/>
<path fill="#ADD9BE" opacity="1.000000" stroke="none" 
	d="
M484.294250,446.158600 
	C484.219971,446.566101 484.145721,446.973633 483.759979,447.913025 
	C482.423279,452.407074 480.984772,456.314819 480.454651,460.342133 
	C479.151947,470.239014 478.267456,480.190948 477.214752,490.120758 
	C477.173401,490.539185 477.132050,490.957581 476.800598,491.980133 
	C476.326752,497.036224 476.027344,501.487030 475.981293,505.940399 
	C475.853149,518.337708 475.830200,530.736145 475.765686,543.134094 
	C474.908569,539.931519 473.374146,536.744263 473.301758,533.523987 
	C472.729858,508.086945 473.438721,482.655762 479.148346,457.769104 
	C482.298706,444.037628 486.147949,430.289337 491.458038,417.273132 
	C498.883331,399.071899 509.596893,382.535553 521.775879,367.046631 
	C522.989319,365.503448 524.654419,364.315521 526.411865,362.824799 
	C526.713806,362.686920 526.973206,362.962006 526.996643,363.417236 
	C524.023010,367.620789 520.873901,371.258575 518.055542,375.136780 
	C506.536438,390.987457 496.654663,407.784302 489.957062,426.260193 
	C487.612671,432.727386 486.156189,439.516510 484.294250,446.158600 
z"/>
<path fill="#9FD2B3" opacity="1.000000" stroke="none" 
	d="
M545.397827,639.200317 
	C545.276428,639.898499 545.154968,640.596741 544.708984,641.849060 
	C542.963135,646.448364 541.854553,650.642456 540.021912,654.491882 
	C538.543335,657.597534 539.154358,659.766968 541.839355,661.198059 
	C546.454956,663.658081 551.262024,665.758728 555.988708,668.010254 
	C555.988708,668.010254 556.000000,668.000000 556.120361,668.333984 
	C566.157471,673.077026 575.965088,677.759827 586.038574,681.775940 
	C590.842102,683.691040 596.150879,684.338867 601.230835,685.560730 
	C601.921509,685.673767 602.612122,685.786804 603.881470,686.213745 
	C608.358276,687.269653 612.256409,688.011719 616.154602,688.753845 
	C616.864990,688.821472 617.575439,688.889099 618.947937,689.243042 
	C626.374268,690.011536 633.133179,690.748840 639.904480,690.887878 
	C644.591919,690.984192 649.296387,690.255249 653.993225,689.895081 
	C656.969116,689.830383 659.945068,689.765625 663.756226,689.802734 
	C665.128845,690.057434 665.666199,690.210388 666.203613,690.363403 
	C661.653259,691.487976 657.160767,693.112061 652.542175,693.646790 
	C636.515869,695.501953 620.579651,692.806152 605.222778,689.358704 
	C589.514221,685.832397 573.682556,681.373962 559.496765,672.874878 
	C553.852356,669.493164 547.802856,666.764709 541.842957,663.939026 
	C535.960876,661.150085 535.143066,658.316772 538.075806,652.492493 
	C540.407104,647.862549 542.079773,642.901001 544.538940,638.294434 
	C545.154663,638.734985 545.276245,638.967651 545.397827,639.200317 
z"/>
<path fill="#4DAB75" opacity="1.000000" stroke="none" 
	d="
M885.938416,236.562866 
	C882.957153,237.077332 879.992004,237.730804 876.991516,238.079880 
	C868.462646,239.072083 859.939697,240.281036 851.377869,240.792023 
	C827.266602,242.231033 803.283081,244.510880 779.600464,249.491882 
	C768.616028,251.802170 757.552490,253.738251 746.517883,255.806992 
	C742.875488,256.489838 739.211426,257.056732 735.490234,257.096436 
	C755.352844,252.374405 775.155823,247.408371 795.247498,244.321518 
	C815.512268,241.208054 836.066711,239.989822 856.487305,237.874268 
	C861.998962,237.303253 867.485535,236.489044 872.983582,235.786469 
	C875.297180,235.749344 877.610779,235.712219 880.715210,235.785065 
	C882.983459,236.117630 884.460938,236.340240 885.938416,236.562866 
z"/>
<path fill="#9FD2B3" opacity="1.000000" stroke="none" 
	d="
M695.024597,399.026428 
	C694.739075,399.178375 694.495605,399.380890 693.811768,399.834808 
	C690.791443,402.570862 688.253418,405.106049 685.715454,407.641235 
	C685.252502,407.943665 684.789612,408.246063 683.813477,408.786163 
	C679.946716,411.761353 676.593201,414.498871 673.239685,417.236389 
	C673.239685,417.236389 672.968262,416.976074 672.829102,416.846619 
	C681.179077,408.838776 689.599304,400.884064 698.190674,393.118835 
	C701.715759,389.932770 705.610229,387.155457 709.336548,384.192169 
	C709.012207,383.726532 708.687866,383.260864 708.363525,382.795227 
	C706.886963,383.594208 705.369995,384.327179 703.939880,385.202148 
	C685.847839,396.271210 668.284790,408.085297 652.200562,421.982697 
	C651.594910,422.505981 650.738098,422.738586 649.540771,423.089111 
	C649.083130,423.071594 648.834167,422.837158 648.901611,422.545410 
	C649.000305,421.856934 649.031555,421.460175 649.062805,421.063446 
	C649.062805,421.063446 649.000000,421.000000 649.377441,421.001831 
	C653.553772,418.104126 657.386902,415.248169 661.145813,412.297699 
	C680.318298,397.248627 700.444336,383.678986 722.358398,372.901337 
	C723.601562,372.289886 725.206665,372.414398 726.643372,372.196442 
	C726.876160,372.663330 727.108948,373.130219 727.341736,373.597137 
	C725.132080,375.603546 722.922424,377.609924 720.712769,379.616333 
	C720.712769,379.616364 720.335205,379.780334 719.802124,379.889648 
	C717.653625,381.106628 715.961670,382.118561 714.436096,383.338501 
	C707.938782,388.534241 701.490723,393.791595 695.024597,399.026428 
M710.608093,382.814270 
	C711.017029,382.472168 711.425903,382.130066 711.834839,381.787933 
	C711.627258,381.589203 711.419739,381.390442 711.212158,381.191681 
	C710.846313,381.577667 710.480530,381.963684 710.608093,382.814270 
M713.353455,380.464142 
	C713.704224,380.543884 714.054993,380.623596 714.405762,380.703339 
	C714.173828,380.482391 713.941895,380.261444 713.353455,380.464142 
z"/>
<path fill="#ADD9BE" opacity="1.000000" stroke="none" 
	d="
M872.666260,235.527603 
	C867.485535,236.489044 861.998962,237.303253 856.487305,237.874268 
	C836.066711,239.989822 815.512268,241.208054 795.247498,244.321518 
	C775.155823,247.408371 755.352844,252.374405 735.204224,256.824646 
	C734.575989,257.147430 734.166931,257.161865 733.048340,257.112427 
	C731.506653,256.916412 730.674377,256.784241 729.842163,256.652100 
	C731.935486,255.472031 733.901184,253.678787 736.143005,253.212143 
	C749.910339,250.346375 763.723511,247.689880 777.553406,245.137314 
	C795.976624,241.736954 814.517395,239.484207 833.197083,237.693466 
	C846.262146,236.440964 859.207703,234.782883 872.666260,235.527603 
z"/>
<path fill="#4DAB75" opacity="1.000000" stroke="none" 
	d="
M866.205261,487.642273 
	C864.121216,491.833740 861.729614,495.544922 860.112427,499.567413 
	C845.818604,535.122375 826.975525,568.118225 804.337402,598.970276 
	C800.925781,603.619690 796.809204,607.751892 792.705811,612.213623 
	C795.436584,607.920288 798.499390,603.549805 801.519836,599.150269 
	C807.868042,589.903564 814.546936,580.859985 820.442993,571.332642 
	C828.443176,558.405273 836.037231,545.213562 843.401733,531.911743 
	C846.793152,525.786194 849.259399,519.144592 852.083801,512.710022 
	C854.644592,506.876251 857.139832,501.013489 859.630676,495.149353 
	C861.729187,490.208893 863.683472,485.204346 865.900391,480.318359 
	C866.759155,478.425751 868.164429,476.781128 869.675659,475.016663 
	C870.097351,475.741882 870.164062,476.473969 869.985474,477.870300 
	C869.128662,479.992554 868.517090,481.450531 867.905518,482.908508 
	C867.355957,484.374451 866.806396,485.840393 866.205261,487.642273 
z"/>
<path fill="#ADD9BE" opacity="1.000000" stroke="none" 
	d="
M480.257782,569.480591 
	C481.805969,578.798767 482.987396,587.797791 484.851715,596.653076 
	C486.488190,604.426331 488.815796,612.059509 490.983917,619.713318 
	C492.154327,623.844971 493.553680,627.917847 495.018036,631.956238 
	C495.422150,633.070740 496.540833,634.852905 497.139008,634.778503 
	C498.408539,634.620728 500.102173,633.723511 500.653564,632.637695 
	C503.488129,627.055664 505.933105,621.277588 508.674225,615.645874 
	C511.402405,610.040649 514.320374,604.527893 517.497559,598.915161 
	C515.880737,603.661926 514.002380,608.503174 511.943207,613.266174 
	C508.881317,620.348694 505.781586,627.418457 502.491730,634.396362 
	C501.691071,636.094604 500.311890,637.719666 498.798126,638.834534 
	C496.637756,640.425781 494.840668,639.975586 494.009766,637.010742 
	C490.435211,624.255371 486.336151,611.628784 483.263947,598.755920 
	C480.247925,586.118347 478.059784,573.270569 475.892242,560.450134 
	C475.128723,555.934082 475.501343,551.226013 475.924164,546.577271 
	C477.673523,553.032288 478.853943,559.515625 480.034363,565.998901 
	C480.085510,567.032288 480.136688,568.065613 480.257782,569.480591 
z"/>
<path fill="#4DAB75" opacity="1.000000" stroke="none" 
	d="
M551.801270,613.305298 
	C553.901978,609.156677 556.332092,605.439453 557.955383,601.398132 
	C562.520020,590.033936 565.966125,578.155579 571.284485,567.173035 
	C581.385132,546.314697 592.390869,525.890564 603.232300,505.398071 
	C605.850708,500.448730 609.294861,495.936310 612.685242,491.116272 
	C610.249390,496.215424 607.512024,501.434296 604.721191,506.624451 
	C596.746033,521.456177 588.529419,536.163513 580.840942,551.142090 
	C576.031555,560.511719 571.745361,570.175476 567.712280,579.909424 
	C564.704102,587.169861 562.529297,594.772644 559.878540,602.185486 
	C558.674988,605.551208 557.222839,608.828369 555.874390,612.141968 
	C553.603638,617.722046 551.325500,623.299194 548.643555,628.640869 
	C549.356567,623.843262 550.476440,619.282349 551.596313,614.721436 
	C551.651672,614.343872 551.707031,613.966370 551.801270,613.305298 
z"/>
<path fill="#ADD9BE" opacity="1.000000" stroke="none" 
	d="
M886.390259,236.584900 
	C884.460938,236.340240 882.983459,236.117630 881.142395,235.736298 
	C882.919067,235.062592 885.036072,234.255661 887.203613,234.083160 
	C896.599243,233.335358 906.002014,232.439407 915.416565,232.222961 
	C928.704224,231.917480 942.015015,231.852097 955.295410,232.296814 
	C962.827576,232.549026 970.318848,234.024475 978.024109,235.266235 
	C976.721741,235.762955 975.223755,235.942459 973.297485,236.275116 
	C969.545959,236.319901 966.222656,236.211517 962.170044,235.809845 
	C960.960571,235.397827 960.480652,235.175964 960.000427,235.175262 
	C939.719421,235.145630 919.438293,235.113968 899.157532,235.178879 
	C897.975342,235.182663 896.795715,235.987900 895.614929,236.420135 
	C892.690674,236.482391 889.766357,236.544647 886.390259,236.584900 
z"/>
<path fill="#ADD9BE" opacity="1.000000" stroke="none" 
	d="
M909.190491,377.329285 
	C913.771973,366.563263 918.061218,355.798279 923.392395,345.576721 
	C935.210938,322.916718 949.214966,301.619232 965.216736,281.665314 
	C966.032104,280.648590 967.103699,279.837402 968.375244,278.840973 
	C967.626404,280.711456 966.827332,282.888184 965.449463,284.598663 
	C948.320312,305.862335 934.163818,329.038330 921.489685,353.138306 
	C917.567505,360.596191 914.435120,368.468384 910.884521,376.124573 
	C910.610413,376.715546 909.885986,377.097626 909.190491,377.329285 
z"/>
<path fill="#ADD9BE" opacity="1.000000" stroke="none" 
	d="
M969.418396,278.063843 
	C972.110474,274.181152 974.831787,269.981506 978.267517,266.483612 
	C985.584412,259.034393 993.284546,251.962280 1000.796021,244.702957 
	C1002.059875,243.481537 1003.165588,242.096405 1004.344360,240.786896 
	C1004.281860,240.200790 1004.219360,239.614670 1004.156860,239.028564 
	C997.284973,238.162018 990.413147,237.295456 983.276733,236.111130 
	C990.539673,235.946457 998.070068,236.032837 1005.590332,236.355667 
	C1006.343262,236.387985 1007.692383,237.924789 1007.616638,238.642212 
	C1007.463196,240.096344 1006.872131,241.828644 1005.851624,242.815735 
	C997.639893,250.758102 989.228882,258.494232 981.000671,266.419983 
	C977.119629,270.158447 973.506165,274.174622 969.418396,278.063843 
z"/>
<path fill="#4DAB75" opacity="1.000000" stroke="none" 
	d="
M666.579224,690.331360 
	C665.666199,690.210388 665.128845,690.057434 664.195068,689.761230 
	C668.936584,688.127014 674.025269,686.430908 679.221802,685.184448 
	C693.548401,681.748169 707.569641,677.603271 720.496399,670.242859 
	C725.901489,667.165283 731.671692,664.729187 737.664856,662.038208 
	C727.941956,667.676331 718.251953,674.329041 707.606201,678.599121 
	C695.679199,683.383301 682.887024,686.010742 670.220459,689.865112 
	C668.964661,690.202148 667.959778,690.250732 666.579224,690.331360 
z"/>
<path fill="#9FD2B3" opacity="1.000000" stroke="none" 
	d="
M604.056641,465.052490 
	C604.320740,464.876648 604.556458,464.668610 605.242310,464.207489 
	C607.653564,461.996216 609.658691,460.070312 611.502563,458.000732 
	C614.410522,454.737000 617.210205,451.376740 620.055664,448.057312 
	C620.055664,448.057312 620.000000,448.000000 620.348572,447.996399 
	C621.142700,447.339722 621.588318,446.686707 622.033875,446.033661 
	C622.033875,446.033661 622.000000,446.000000 622.355469,445.981262 
	C628.398621,440.900391 634.086426,435.838226 639.899841,430.905518 
	C640.025513,431.034973 640.272522,431.298035 640.272522,431.298035 
	C634.411072,437.356903 628.399780,443.279144 622.720215,449.503937 
	C611.891846,461.371735 601.259399,473.418091 590.514771,485.362640 
	C589.999023,485.935944 589.187378,486.243011 588.206238,486.387115 
	C589.013794,484.189362 590.128601,482.278595 591.243408,480.367798 
	C591.243408,480.367798 591.304138,480.297729 591.619629,480.174164 
	C592.308899,479.386292 592.682739,478.721954 593.056519,478.057648 
	C593.056519,478.057648 593.000000,478.000000 593.364990,477.987183 
	C595.500244,475.663361 597.270447,473.352356 599.040710,471.041351 
	C599.040710,471.041351 599.000000,471.004761 599.337341,470.908966 
	C601.135315,468.892944 602.596008,466.972717 604.056641,465.052490 
z"/>
<path fill="#4DAB75" opacity="1.000000" stroke="none" 
	d="
M480.323212,565.716187 
	C478.853943,559.515625 477.673523,553.032288 476.195953,546.266846 
	C475.880310,545.270874 475.861816,544.556946 475.804504,543.488586 
	C475.830200,530.736145 475.853149,518.337708 475.981293,505.940399 
	C476.027344,501.487030 476.326752,497.036224 476.810547,492.295593 
	C477.383209,493.578613 477.883362,495.149109 477.891449,496.722137 
	C477.942505,506.665527 477.506256,516.627014 477.965973,526.548401 
	C478.453217,537.063538 479.804047,547.536926 480.670929,558.037415 
	C480.872955,560.484436 480.643158,562.967224 480.323212,565.716187 
z"/>
<path fill="#4DAB75" opacity="1.000000" stroke="none" 
	d="
M590.897339,480.294830 
	C590.128601,482.278595 589.013794,484.189362 587.869385,486.435059 
	C587.839722,486.769958 587.851257,486.827789 587.514648,486.936523 
	C585.055420,489.944733 582.932861,492.844177 580.810242,495.743591 
	C580.747253,495.905548 580.684204,496.067474 580.200806,496.576477 
	C578.457520,498.870087 577.134583,500.816711 575.811584,502.763306 
	C575.811584,502.763306 575.819885,502.816742 575.492065,502.921509 
	C574.389221,504.285645 573.614136,505.544983 572.839111,506.804321 
	C572.068054,508.072327 571.296936,509.340332 569.946167,510.838501 
	C568.838074,511.946472 568.309692,512.824280 567.781250,513.702026 
	C566.817261,515.192505 565.853210,516.682922 564.404846,518.477783 
	C563.400452,518.943054 562.880432,519.104004 562.360413,519.264954 
	C562.890076,517.630005 563.038635,515.712280 564.009216,514.404602 
	C572.249878,503.301575 580.634094,492.304993 589.005981,481.299896 
	C589.367981,480.824066 590.029419,480.576050 590.897339,480.294830 
z"/>
<path fill="#4DAB75" opacity="1.000000" stroke="none" 
	d="
M729.541626,256.712402 
	C730.674377,256.784241 731.506653,256.916412 732.746338,257.170776 
	C730.899414,258.472076 728.760803,260.029083 726.369690,260.761322 
	C718.269775,263.241699 710.096008,265.488617 701.909851,267.672363 
	C700.545532,268.036377 698.978394,267.640411 697.254211,267.315308 
	C706.726257,264.007050 716.449341,260.979858 726.171143,257.948425 
	C726.641357,257.801788 727.099670,257.617035 727.791504,257.150085 
	C728.426636,256.824371 728.833862,256.798553 729.541626,256.712402 
z"/>
<path fill="#9FD2B3" opacity="1.000000" stroke="none" 
	d="
M534.304688,567.914307 
	C537.537231,561.307739 541.013000,554.595764 544.706909,548.006165 
	C546.633362,544.569580 548.944153,541.348389 551.397888,537.927734 
	C551.022217,539.937988 550.697693,542.273743 549.574036,544.124268 
	C544.723145,552.113525 539.638184,559.960754 534.304688,567.914307 
z"/>
<path fill="#9FD2B3" opacity="1.000000" stroke="none" 
	d="
M551.311584,614.893677 
	C550.476440,619.282349 549.356567,623.843262 548.337280,628.773804 
	C548.331848,629.857788 548.225830,630.572021 547.798706,631.801575 
	C546.621948,633.549438 545.766174,634.781982 544.910461,636.014587 
	C544.718506,634.769287 544.043030,633.351807 544.414795,632.307190 
	C546.478149,626.510010 548.796082,620.803467 551.311584,614.893677 
z"/>
<path fill="#9FD2B3" opacity="1.000000" stroke="none" 
	d="
M562.232422,519.514038 
	C562.880432,519.104004 563.400452,518.943054 564.188843,518.734009 
	C562.460815,522.011475 560.464417,525.336975 558.128662,528.696655 
	C558.871887,526.410706 559.954407,524.090576 561.051880,521.416321 
	C561.412598,520.629089 561.758484,520.196045 562.232422,519.514038 
z"/>
<path fill="#9FD2B3" opacity="1.000000" stroke="none" 
	d="
M640.029785,429.026489 
	C640.590454,428.518341 641.151123,428.010193 642.211243,427.249634 
	C644.751831,425.610535 646.793030,424.223846 648.834167,422.837158 
	C648.834167,422.837158 649.083130,423.071594 649.211060,423.187805 
	C646.524902,425.881989 643.710693,428.459900 640.584534,431.167938 
	C640.272522,431.298035 640.025513,431.034973 639.982910,430.620972 
	C639.970154,429.813446 640.000000,429.419983 640.029785,429.026489 
z"/>
<path fill="#9FD2B3" opacity="1.000000" stroke="none" 
	d="
M552.125732,537.675598 
	C553.557373,534.792725 555.341431,531.907043 557.449219,528.937256 
	C556.008057,531.793030 554.243164,534.732910 552.125732,537.675598 
z"/>
<path fill="#9FD2B3" opacity="1.000000" stroke="none" 
	d="
M581.155945,495.719635 
	C582.932861,492.844177 585.055420,489.944733 587.501221,486.962799 
	C585.716858,489.818756 583.609253,492.757202 581.155945,495.719635 
z"/>
<path fill="#ADD9BE" opacity="1.000000" stroke="none" 
	d="
M895.217285,410.866211 
	C895.917358,407.717529 896.977295,404.571808 898.287231,401.086853 
	C897.550537,404.121460 896.563782,407.495331 895.217285,410.866211 
z"/>
<path fill="#ADD9BE" opacity="1.000000" stroke="none" 
	d="
M873.048767,465.383545 
	C874.036987,463.674988 874.993652,462.354034 876.247803,460.979797 
	C878.050354,463.910797 876.945801,465.890320 873.783203,467.216797 
	C873.299255,466.739777 873.158264,466.255493 873.048767,465.383545 
z"/>
<path fill="#4DAB75" opacity="1.000000" stroke="none" 
	d="
M870.638550,473.554443 
	C867.318726,470.153320 869.909912,468.612427 872.657593,467.014160 
	C872.940369,468.389648 872.859558,469.764008 872.293823,471.594910 
	C871.633240,472.657288 871.457642,473.263092 871.282104,473.868896 
	C871.110840,473.839386 870.939697,473.809845 870.638550,473.554443 
z"/>
<path fill="#4DAB75" opacity="1.000000" stroke="none" 
	d="
M544.873779,636.315002 
	C545.766174,634.781982 546.621948,633.549438 547.765015,632.160583 
	C550.322632,635.194397 547.358765,636.831238 545.695679,639.071411 
	C545.276245,638.967651 545.154663,638.734985 544.842468,638.156982 
	C544.713684,637.412964 544.775391,637.014160 544.873779,636.315002 
z"/>
<path fill="#ADD9BE" opacity="1.000000" stroke="none" 
	d="
M890.395996,422.988464 
	C890.714905,421.058105 891.366211,419.067749 892.351440,417.012573 
	C895.357849,420.029358 891.633423,421.017609 890.395996,422.988464 
z"/>
<path fill="#ADD9BE" opacity="1.000000" stroke="none" 
	d="
M877.376465,458.971375 
	C877.762878,456.692566 878.478088,454.349243 879.506226,451.939423 
	C879.114563,454.217590 878.409912,456.562195 877.376465,458.971375 
z"/>
<path fill="#ADD9BE" opacity="1.000000" stroke="none" 
	d="
M880.998169,447.162537 
	C881.585205,445.322205 882.210876,443.729034 883.155029,442.030762 
	C884.691467,444.688446 884.104492,446.009613 880.998169,447.162537 
z"/>
<path fill="#9FD2B3" opacity="1.000000" stroke="none" 
	d="
M576.155701,502.716187 
	C577.134583,500.816711 578.457520,498.870087 580.069336,496.801575 
	C579.072083,498.676086 577.785950,500.672546 576.155701,502.716187 
z"/>
<path fill="#ADD9BE" opacity="1.000000" stroke="none" 
	d="
M888.004883,428.165039 
	C888.286316,426.980774 888.611816,426.051880 889.296204,425.032440 
	C891.633606,427.262115 890.902466,428.331207 888.004883,428.165039 
z"/>
<path fill="#ADD9BE" opacity="1.000000" stroke="none" 
	d="
M868.264771,482.927002 
	C868.517090,481.450531 869.128662,479.992554 869.938354,478.243042 
	C869.632324,479.616150 869.128113,481.280823 868.264771,482.927002 
z"/>
<path fill="#9FD2B3" opacity="1.000000" stroke="none" 
	d="
M573.190918,506.752441 
	C573.614136,505.544983 574.389221,504.285645 575.481079,502.946289 
	C575.046265,504.144348 574.294495,505.422424 573.190918,506.752441 
z"/>
<path fill="#ADD9BE" opacity="1.000000" stroke="none" 
	d="
M528.118103,578.766174 
	C528.218750,577.927917 528.650757,577.082520 529.349060,576.114624 
	C529.226685,576.914429 528.838074,577.836731 528.118103,578.766174 
z"/>
<path fill="#ADD9BE" opacity="1.000000" stroke="none" 
	d="
M525.777100,583.173340 
	C525.928528,582.197876 526.416687,581.136841 527.156860,579.893555 
	C526.977234,580.836731 526.545532,581.962158 525.777100,583.173340 
z"/>
<path fill="#ADD9BE" opacity="1.000000" stroke="none" 
	d="
M522.975586,588.434937 
	C523.202026,587.616394 523.585083,586.961304 524.309937,586.147095 
	C524.145203,586.858154 523.638672,587.728271 522.975586,588.434937 
z"/>
<path fill="#ADD9BE" opacity="1.000000" stroke="none" 
	d="
M520.140076,594.835693 
	C520.232056,593.941895 520.657837,593.080505 521.359009,592.103638 
	C521.247498,592.948181 520.860718,593.908081 520.140076,594.835693 
z"/>
<path fill="#9FD2B3" opacity="1.000000" stroke="none" 
	d="
M568.116821,513.677307 
	C568.309692,512.824280 568.838074,511.946472 569.698364,511.047943 
	C569.504333,511.902313 568.978333,512.777466 568.116821,513.677307 
z"/>
<path fill="#ADD9BE" opacity="1.000000" stroke="none" 
	d="
M899.541626,399.147461 
	C899.455139,398.450500 899.688599,397.741608 900.216980,396.977539 
	C900.295105,397.660065 900.078430,398.397766 899.541626,399.147461 
z"/>
<path fill="#ADD9BE" opacity="1.000000" stroke="none" 
	d="
M871.525391,473.973358 
	C871.457642,473.263092 871.633240,472.657288 872.134705,471.984375 
	C872.814087,472.196014 873.167603,472.474701 873.521057,472.753418 
	C872.936951,473.194885 872.352844,473.636353 871.525391,473.973358 
z"/>
<path fill="#ADD9BE" opacity="1.000000" stroke="none" 
	d="
M902.600464,391.165619 
	C902.552307,390.470306 902.814880,389.746765 903.392517,388.986725 
	C903.442139,389.679260 903.176636,390.408356 902.600464,391.165619 
z"/>
<path fill="#ADD9BE" opacity="1.000000" stroke="none" 
	d="
M901.331238,394.997314 
	C901.095947,394.470093 901.151367,393.909088 901.440796,393.177002 
	C901.657104,393.658447 901.639526,394.310974 901.331238,394.997314 
z"/>
<path fill="#ADD9BE" opacity="1.000000" stroke="none" 
	d="
M905.254395,385.490234 
	C905.279968,384.788483 905.511536,384.285004 906.008423,383.674103 
	C906.002625,384.273956 905.731567,384.981262 905.254395,385.490234 
z"/>
<path fill="#ADD9BE" opacity="1.000000" stroke="none" 
	d="
M886.098022,435.204651 
	C885.863159,434.669525 885.896301,434.414062 886.265076,434.086121 
	C886.765930,434.416473 887.090149,434.840027 887.414429,435.263550 
	C887.011963,435.330231 886.609497,435.396942 886.098022,435.204651 
z"/>
<path fill="#ADD9BE" opacity="1.000000" stroke="none" 
	d="
M884.274292,439.964355 
	C884.031860,439.436462 884.089111,438.894104 884.368774,438.183472 
	C884.585449,438.660065 884.579773,439.304993 884.274292,439.964355 
z"/>
<path fill="#4DAB75" opacity="1.000000" stroke="none" 
	d="
M484.615356,446.043457 
	C486.156189,439.516510 487.612671,432.727386 489.957062,426.260193 
	C496.654663,407.784302 506.536438,390.987457 518.055542,375.136780 
	C520.873901,371.258575 524.023010,367.620789 527.128967,363.552185 
	C535.826416,354.957489 544.106873,346.330811 553.072327,338.487122 
	C568.328369,325.139984 585.227905,314.128204 602.992798,304.315765 
	C624.104675,292.654633 646.376404,283.722565 668.830139,275.191986 
	C677.169189,272.023834 685.849609,269.754211 694.766907,267.178284 
	C693.989258,268.353607 692.994385,269.956451 691.620056,270.410461 
	C683.348328,273.143066 674.887512,275.325958 666.689087,278.250977 
	C658.641907,281.122070 650.711670,284.395691 642.943481,287.957977 
	C628.122437,294.754547 612.989075,301.066223 598.854797,309.107483 
	C585.407715,316.757751 572.772583,325.960175 560.352417,335.245087 
	C552.420593,341.174713 545.318665,348.280853 538.216492,355.239136 
	C525.838806,367.366028 515.234558,381.005676 506.947144,396.198212 
	C500.693268,407.662964 495.402710,419.665955 489.976990,431.563263 
	C487.879974,436.161499 486.592651,441.128998 484.615356,446.043457 
z"/>
<path fill="#4DAB75" opacity="1.000000" stroke="none" 
	d="
M721.076172,379.706360 
	C722.922424,377.609924 725.132080,375.603546 727.341736,373.597137 
	C727.108948,373.130219 726.876160,372.663330 726.643372,372.196442 
	C725.206665,372.414398 723.601562,372.289886 722.358398,372.901337 
	C700.444336,383.678986 680.318298,397.248627 661.145813,412.297699 
	C657.386902,415.248169 653.553772,418.104126 649.409424,421.032501 
	C653.054443,417.267181 656.653625,412.917938 661.106201,409.779449 
	C676.577026,398.874573 692.108948,388.018341 708.098328,377.903381 
	C715.966125,372.926147 724.869080,369.573944 733.365112,365.618439 
	C734.207458,365.226288 735.480164,365.758484 736.553101,365.861633 
	C736.298340,367.077240 736.467468,368.838806 735.719666,369.419312 
	C731.074036,373.025604 726.222717,376.367065 721.076172,379.706360 
M730.546936,370.523407 
	C730.546936,370.523407 730.456421,370.569519 730.546936,370.523407 
z"/>
<path fill="#4DAB75" opacity="1.000000" stroke="none" 
	d="
M896.083862,236.615005 
	C896.795715,235.987900 897.975342,235.182663 899.157532,235.178879 
	C919.438293,235.113968 939.719421,235.145630 960.000427,235.175262 
	C960.480652,235.175964 960.960571,235.397827 961.714233,235.834045 
	C961.240540,236.427902 960.493164,236.945862 959.745972,236.945389 
	C938.681580,236.932205 917.617126,236.866760 896.083862,236.615005 
z"/>
<path fill="#4DAB75" opacity="1.000000" stroke="none" 
	d="
M477.561707,489.990570 
	C478.267456,480.190948 479.151947,470.239014 480.454651,460.342133 
	C480.984772,456.314819 482.423279,452.407074 483.739075,448.223175 
	C484.272400,449.563812 484.926117,451.190613 484.692810,452.678345 
	C482.808838,464.691620 480.764771,476.679932 478.731628,488.669403 
	C478.658539,489.100494 478.191864,489.464874 477.561707,489.990570 
z"/>
<path fill="#4DAB75" opacity="1.000000" stroke="none" 
	d="
M601.078247,685.263489 
	C596.150879,684.338867 590.842102,683.691040 586.038574,681.775940 
	C575.965088,677.759827 566.157471,673.077026 556.116577,668.340027 
	C558.632080,668.889954 561.297546,669.697327 563.906616,670.658142 
	C574.188599,674.444641 584.463135,678.251953 594.715210,682.118652 
	C596.840942,682.920349 598.858398,684.009460 601.078247,685.263489 
z"/>
<path fill="#4DAB75" opacity="1.000000" stroke="none" 
	d="
M555.957031,667.664246 
	C551.262024,665.758728 546.454956,663.658081 541.839355,661.198059 
	C539.154358,659.766968 538.543335,657.597534 540.021912,654.491882 
	C541.854553,650.642456 542.963135,646.448364 544.669067,642.201538 
	C544.155090,645.840393 543.636841,649.767212 542.487183,653.499573 
	C541.043579,658.186340 542.807983,660.506409 547.085938,662.208496 
	C550.214844,663.453430 552.991638,665.583008 555.957031,667.664246 
z"/>
<path fill="#4DAB75" opacity="1.000000" stroke="none" 
	d="
M653.693359,689.609985 
	C649.296387,690.255249 644.591919,690.984192 639.904480,690.887878 
	C633.133179,690.748840 626.374268,690.011536 619.304932,689.251099 
	C621.730164,688.699158 624.468811,688.130493 627.189392,688.206665 
	C635.927673,688.451111 644.659302,688.933899 653.693359,689.609985 
z"/>
<path fill="#4DAB75" opacity="1.000000" stroke="none" 
	d="
M695.386536,399.035583 
	C701.490723,393.791595 707.938782,388.534241 714.436096,383.338501 
	C715.961670,382.118561 717.653625,381.106628 719.618103,379.981750 
	C718.376160,381.699158 717.006653,383.730225 715.153992,385.114624 
	C708.776611,389.879974 702.230347,394.419312 695.386536,399.035583 
z"/>
<path fill="#4DAB75" opacity="1.000000" stroke="none" 
	d="
M784.680664,621.033569 
	C782.545959,624.001648 780.246643,627.157837 777.539490,629.913330 
	C773.755981,633.764526 769.668030,637.316528 765.364929,641.009277 
	C766.817871,638.760559 768.425293,636.308533 770.453674,634.276794 
	C774.968750,629.753906 779.694275,625.441162 784.680664,621.033569 
z"/>
<path fill="#4DAB75" opacity="1.000000" stroke="none" 
	d="
M639.674133,429.031525 
	C640.000000,429.419983 639.970154,429.813446 639.857239,430.491516 
	C634.086426,435.838226 628.398621,440.900391 622.372437,445.998047 
	C623.792664,443.777466 625.306885,441.262512 627.362854,439.321411 
	C631.181213,435.716400 635.315674,432.446167 639.674133,429.031525 
z"/>
<path fill="#4DAB75" opacity="1.000000" stroke="none" 
	d="
M613.357178,490.989532 
	C617.799011,484.083221 622.586670,477.155823 627.698975,470.125366 
	C624.572937,475.571625 621.190735,481.165558 617.629272,486.642883 
	C616.581360,488.254395 615.025757,489.535736 613.357178,490.989532 
z"/>
<path fill="#4DAB75" opacity="1.000000" stroke="none" 
	d="
M619.706421,448.054260 
	C617.210205,451.376740 614.410522,454.737000 611.502563,458.000732 
	C609.658691,460.070312 607.653564,461.996216 605.383179,464.017700 
	C609.816101,458.716248 614.586609,453.383698 619.706421,448.054260 
z"/>
<path fill="#4DAB75" opacity="1.000000" stroke="none" 
	d="
M628.368164,469.993591 
	C631.451233,465.407013 634.876099,460.792358 638.618835,456.064911 
	C635.527771,460.623230 632.118835,465.294373 628.368164,469.993591 
z"/>
<path fill="#4DAB75" opacity="1.000000" stroke="none" 
	d="
M751.639038,651.993286 
	C747.594482,655.347961 743.181274,658.685852 738.419678,662.046021 
	C742.471008,658.704285 746.870728,655.340332 751.639038,651.993286 
z"/>
<path fill="#4DAB75" opacity="1.000000" stroke="none" 
	d="
M652.352905,440.989441 
	C655.458801,437.070251 658.908936,433.133667 662.681885,429.102356 
	C659.568848,432.995728 656.132996,436.983887 652.352905,440.989441 
z"/>
<path fill="#4DAB75" opacity="1.000000" stroke="none" 
	d="
M763.645264,641.995239 
	C760.240967,645.331543 756.471252,648.651062 752.355591,651.989868 
	C755.766357,648.665649 759.523071,645.322083 763.645264,641.995239 
z"/>
<path fill="#4DAB75" opacity="1.000000" stroke="none" 
	d="
M673.165405,417.530090 
	C676.593201,414.498871 679.946716,411.761353 683.645142,409.006805 
	C680.573181,412.320953 677.156433,415.652130 673.389832,419.006683 
	C673.057068,418.627960 673.074097,418.225861 673.165405,417.530090 
z"/>
<path fill="#4DAB75" opacity="1.000000" stroke="none" 
	d="
M616.033447,688.425354 
	C612.256409,688.011719 608.358276,687.269653 604.231323,686.232788 
	C608.423950,684.166992 612.258545,685.633240 616.033447,688.425354 
z"/>
<path fill="#4DAB75" opacity="1.000000" stroke="none" 
	d="
M686.069580,407.721313 
	C688.253418,405.106049 690.791443,402.570862 693.677002,400.031982 
	C691.490906,402.619354 688.957275,405.210388 686.069580,407.721313 
z"/>
<path fill="#4DAB75" opacity="1.000000" stroke="none" 
	d="
M598.690918,471.048157 
	C597.270447,473.352356 595.500244,475.663361 593.394287,478.014893 
	C594.819336,475.721954 596.580200,473.388458 598.690918,471.048157 
z"/>
<path fill="#4DAB75" opacity="1.000000" stroke="none" 
	d="
M648.901611,422.545410 
	C646.793030,424.223846 644.751831,425.610535 642.365356,427.009674 
	C644.128967,425.035950 646.237915,423.049774 648.704834,421.063507 
	C649.031555,421.460175 649.000305,421.856934 648.901611,422.545410 
z"/>
<path fill="#4DAB75" opacity="1.000000" stroke="none" 
	d="
M645.316040,448.953979 
	C646.758911,446.709808 648.551697,444.451569 650.663269,442.088806 
	C649.210022,444.302856 647.437988,446.621399 645.316040,448.953979 
z"/>
<path fill="#4DAB75" opacity="1.000000" stroke="none" 
	d="
M639.292480,455.942932 
	C640.618958,453.915680 642.296021,451.891663 644.284424,449.777893 
	C642.944885,451.774109 641.294006,453.860138 639.292480,455.942932 
z"/>
<path fill="#4DAB75" opacity="1.000000" stroke="none" 
	d="
M791.694275,613.053345 
	C790.577271,614.960327 789.106140,616.876465 787.314697,618.893921 
	C788.442932,617.017578 789.891541,615.040039 791.694275,613.053345 
z"/>
<path fill="#4DAB75" opacity="1.000000" stroke="none" 
	d="
M603.702393,465.058655 
	C602.596008,466.972717 601.135315,468.892944 599.359253,470.923462 
	C600.478577,469.044098 601.913391,467.054474 603.702393,465.058655 
z"/>
<path fill="#4DAB75" opacity="1.000000" stroke="none" 
	d="
M667.321777,424.973541 
	C667.437622,424.329346 667.882446,423.672760 668.650146,422.995117 
	C668.532288,423.636414 668.091553,424.298798 667.321777,424.973541 
z"/>
<path fill="#4DAB75" opacity="1.000000" stroke="none" 
	d="
M665.320190,426.974304 
	C665.440613,426.335815 665.888367,425.682953 666.660889,425.011322 
	C666.539673,425.648346 666.093689,426.304138 665.320190,426.974304 
z"/>
<path fill="#4DAB75" opacity="1.000000" stroke="none" 
	d="
M663.335083,428.985931 
	C663.452026,428.348511 663.895874,427.692780 664.664185,427.014954 
	C664.546448,427.651123 664.104248,428.309357 663.335083,428.985931 
z"/>
<path fill="#4DAB75" opacity="1.000000" stroke="none" 
	d="
M621.701477,446.044128 
	C621.588318,446.686707 621.142700,447.339722 620.377197,448.023987 
	C620.494507,447.388336 620.931824,446.721466 621.701477,446.044128 
z"/>
<path fill="#4DAB75" opacity="1.000000" stroke="none" 
	d="
M592.714722,478.068542 
	C592.682739,478.721954 592.308899,479.386292 591.651184,480.140137 
	C591.702454,479.512970 592.037659,478.796234 592.714722,478.068542 
z"/>
<path fill="#FEFFFF" opacity="1.000000" stroke="none" 
	d="
M710.361389,382.581970 
	C710.480530,381.963684 710.846313,381.577667 711.212158,381.191681 
	C711.419739,381.390442 711.627258,381.589203 711.834839,381.787933 
	C711.425903,382.130066 711.017029,382.472168 710.361389,382.581970 
z"/>
<path fill="#FEFFFF" opacity="1.000000" stroke="none" 
	d="
M713.531738,380.252319 
	C713.941895,380.261444 714.173828,380.482391 714.405762,380.703339 
	C714.054993,380.623596 713.704224,380.543884 713.531738,380.252319 
z"/>
<path fill="#9FD2B3" opacity="1.000000" stroke="none" 
	d="
M730.501709,370.546448 
	C730.456421,370.569519 730.546936,370.523407 730.501709,370.546448 
z"/>
</svg>