<svg version="1.1" id="Layer_1" xmlns="http://www.w3.org/2000/svg" xmlns:xlink="http://www.w3.org/1999/xlink" x="0px" y="0px"
	 width="100%" viewBox="0 0 352 352" enable-background="new 0 0 352 352" xml:space="preserve">
<path fill="#000000" opacity="1.000000" stroke="none" 
	d="
M123.564621,76.356239 
	C152.117020,64.898827 178.614853,67.433800 202.016251,87.468819 
	C229.064529,110.626083 235.038620,148.308273 217.141373,179.042648 
	C214.762375,183.128021 215.095383,185.199158 218.547424,188.539734 
	C233.152283,202.673004 247.320023,217.257736 261.663879,231.661194 
	C264.718842,234.728836 268.023560,237.567017 270.895538,240.793640 
	C276.588287,247.189240 276.610596,254.494797 271.229401,259.510925 
	C265.776947,264.593475 258.596680,264.163696 252.566818,258.160583 
	C235.679077,241.347626 218.865860,224.459854 202.014114,207.610733 
	C196.508987,202.106430 196.496185,202.119217 189.759842,205.887222 
	C146.924072,229.847824 92.349075,204.538712 83.198715,156.264618 
	C77.214935,124.696312 91.625374,92.377861 123.564621,76.356239 
M139.519577,187.003967 
	C148.248749,189.847443 156.938797,190.490555 166.028381,188.151047 
	C191.523636,181.588974 207.171921,155.540848 200.448303,130.257004 
	C193.627884,104.609169 167.030350,89.516068 141.602219,96.864067 
	C122.526955,102.376266 107.764259,120.527145 107.301407,139.037262 
	C106.736649,161.623108 118.597160,179.628723 139.519577,187.003967 
z"/>
</svg>